# AST/ASF file generated using VICON BodyLanguage
# -----------------------------------------------
:version 1.10
:name VICON
:units
  mass 1.0
  length 0.45
  angle deg
:documentation
   .ast/.asf automatically generated from VICON data using
   VICON BodyBuilder and BodyLanguage model FoxedUp or BRILLIANT.MOD
:root
   order TX TY TZ RX RY RZ
   axis XYZ
   position 0 0 0  
   orientation 0 0 0 
:bonedata
  begin
     id 1 
     name lhipjoint
     direction 0.589753 -0.68606 0.426044 
     length 2.54082 
     axis 0 0 0  XYZ
  end
  begin
     id 2 
     name lfemur
     direction 0.34202 -0.939693 0  
     length 7.04539  
     axis 0 0 20  XYZ
    dof rx ry rz
    limits (-160.0 20.0)
           (-70.0 70.0)
           (-60.0 70.0)
  end
  begin
     id 3 
     name ltibia
     direction 0.34202 -0.939693 0   
     length 7.83772   
     axis 0 0 20   XYZ
    dof rx
    limits (-10.0 170.0)
  end
  begin
     id 4 
     name lfoot
     direction 0.0596604 -0.163915 0.984669   
     length 2.39542   
     axis -90 7.62852e-016 20   XYZ
    dof rx rz
    limits (-45.0 90.0)
           (-70.0 20.0)
  end
  begin
     id 5 
     name ltoes
     direction 1.53514e-011 -4.21954e-011 1   
     length 1.2047   
     axis -90 7.62852e-016 20   XYZ
    dof rx
    limits (-90.0 20.0)
  end
  begin
     id 6 
     name rhipjoint
     direction -0.580585 -0.69168 0.429534   
     length 2.52018  
     axis 0 0 0  XYZ 
  end
  begin
     id 7 
     name rfemur
     direction -0.34202 -0.939693 0   
     length 7.0101   
     axis 0 0 -20   XYZ
    dof rx ry rz
    limits (-160.0 20.0)
           (-70.0 70.0)
           (-70.0 60.0)
  end
  begin
     id 8 
     name rtibia
     direction -0.34202 -0.939693 0   
     length 7.70628   
     axis 0 0 -20   XYZ
    dof rx
    limits (-10.0 170.0)
 end
 begin
     id 9 
     name rfoot
     direction -0.0696237 -0.19129 0.979061   
     length 2.52466  
     axis -90 -7.62852e-016 -20   XYZ
    dof rx rz
    limits (-45.0 90.0)
           (-20.0 70.0)
  end
  begin
     id 10 
     name rtoes
     direction -1.53519e-011 -4.21793e-011 1   
     length 1.266   
     axis -90 -7.62852e-016 -20   XYZ
    dof rx
    limits (-90.0 20.0)
  end
  begin
     id 11 
     name lowerback
     direction 0.00381965 0.995707 -0.0924856   
     length 2.20825   
     axis 0 0 0   XYZ
    dof rx ry rz
    limits (-20.0 45.0)
           (-30.0 30.0)
           (-30.0 30.0)
  end
  begin
     id 12 
     name upperback
     direction -0.0139043 0.999634 -0.0231929   
     length 2.21517   
     axis 0 0 0   XYZ
    dof rx ry rz
    limits (-20.0 45.0)
           (-30.0 30.0)
           (-30.0 30.0)
  end
  begin
     id 13 
     name thorax
     direction -0.0143933 0.999691 0.0202892   
     length 2.22911   
     axis 0 0 0   XYZ
    dof rx ry rz
    limits (-20.0 45.0)
           (-30.0 30.0)
           (-30.0 30.0)
  end
  begin
     id 14 
     name lowerneck
     direction -0.0251153 0.981819 0.188153   
     length 1.61782   
     axis 0 0 0   XYZ
    dof rx ry rz
    limits (-20.0 45.0)
           (-30.0 30.0)
           (-30.0 30.0)
  end
  begin
     id 15 
     name upperneck
     direction 0.0563891 0.969357 -0.239095   
     length 1.64526   
     axis 0 0 0   XYZ
    dof rx ry rz
    limits (-20.0 45.0)
           (-30.0 30.0)
           (-30.0 30.0)
  end
  begin
     id 16
     name head
     direction 0.0208328 0.99459 -0.101773  
     length 1.67436  
     axis 0 0 0   XYZ
    dof rx ry rz
    limits (-20.0 45.0)
           (-30.0 30.0)
           (-30.0 30.0)
  end
  begin
     id 17 
     name lclavicle
     direction 0.917689 0.397224 0.00772059  
     length 3.31102  
     axis 0 0 0   XYZ
    dof ry rz
    limits (-20.0 10.0)
           (0.0 20.0)
  end
  begin
     id 18 
     name lhumerus
     direction 1 -4.4896e-011 2.32308e-027   
     length 5.25537   
     axis 180 -30 -90   XYZ
    dof rx ry rz
    limits (-60.0 90.0)
           (-90.0 90.0)
           (-90.0 90.0)
  end
  begin
     id 19
     name lradius
     direction 1 -4.49005e-011 -2.04271e-027   
     length 3.38855   
     axis 180 -30 -90   XYZ
    dof rx
    limits (-10.0 170.0)
  end
  begin
     id 20
     name lwrist
     direction 1 -4.48892e-011 2.56952e-028   
     length 1.69428   
     axis -5.12785e-016 90 90   XYZ
    dof ry
    limits (-180.0 0.0)
 end
  begin
     id 21 
     name lhand
     direction 1 -4.48966e-011 5.13905e-028   
     length 0.614516   
     axis -3.27915e-016 90 90   XYZ
    dof rx rz
    limits (-90.0 90.0)
           (-45.0 45.0)
  end
  begin
     id 22 
     name lfingers
     direction 1 -4.48979e-011 1.02781e-027   
     length 0.495439   
     axis -6.5583e-016 90 90   XYZ
    dof rx
    limits (0.0 90.0)
  end
  begin
     id 23
     name lthumb
     direction 0.707107 -6.35001e-011 0.707107   
     length 0.711354   
     axis -90 45 2.85299e-015   XYZ
    dof rx rz
    limits (-45.0 45.0)
           (-45.0 45.0)
  end
  begin
     id 24 
     name rclavicle
     direction -0.938556 0.342765 -0.0403177   
     length 3.27019  
     axis 0 0 0   XYZ 
    dof ry rz
    limits (-10.0 20.0)
           (-20.0 0.0)
  end
  begin
     id 25 
     name rhumerus
     direction -1 -4.48966e-011 2.52291e-027  
     length 5.38183   
     axis 180 30 90   XYZ
    dof rx ry rz
    limits (-90.0 60.0)
           (-90.0 90.0)
           (-90.0 90.0)
  end
  begin
     id 26 
     name rradius
     direction -1 -4.4896e-011 1.5797e-027   
     length 3.16988   
     axis 180 30 90   XYZ
    dof rx
    limits (-10.0 170.0)
  end
  begin
     id 27 
     name rwrist
     direction -1 -4.48947e-011 2.56952e-028   
     length 1.58494   
     axis -5.12785e-016 -90 -90   XYZ
    dof ry
    limits (-180.0 0.0)
  end
  begin
     id 28
     name rhand
     direction -1 -4.49098e-011 5.13905e-028   
     length 0.637679   
     axis -3.27915e-016 -90 -90   XYZ
    dof rx rz
    limits (-90.0 90.0)
           (-45.0 45.0)
  end
  begin
     id 29
     name rfingers
     direction -1 -4.49026e-011 1.02781e-027   
     length 0.514113   
     axis -6.5583e-016 -90 -90   XYZ
    dof rx
    limits (0.0 90.0)
  end
  begin
     id 30
     name rthumb
     direction -0.707107 -6.3491e-011 0.707107   
     length 0.738167   
     axis -90 -45 -2.85299e-015   XYZ
    dof rx rz
    limits (-45.0 45.0)
           (-45.0 45.0)
  end
:hierarchy
  begin
    root lhipjoint rhipjoint lowerback
    lhipjoint lfemur
    lfemur ltibia
    ltibia lfoot
    lfoot ltoes
    rhipjoint rfemur
    rfemur rtibia
    rtibia rfoot
    rfoot rtoes
    lowerback upperback
    upperback thorax
    thorax lowerneck lclavicle rclavicle
    lowerneck upperneck
    upperneck head
    lclavicle lhumerus
    lhumerus lradius
    lradius lwrist
    lwrist lhand lthumb
    lhand lfingers
    rclavicle rhumerus
    rhumerus rradius
    rradius rwrist
    rwrist rhand rthumb
    rhand rfingers
  end

#!OML:ASF H:\Swim\Project 1\Capture day 1\Session 1\swimmer.ASF
:FULLY-SPECIFIED
:DEGREES
458
root 7.71426 17.1799 11.6898 36.9336 -13.6934 -12.0745
lowerback 21.8859 2.07978 -1.1976
upperback 8.12619 1.95029 -5.88121
thorax -3.157 0.963758 -6.13845
lowerneck -25.3949 -4.85508 -9.05936
upperneck 18.0555 -6.48835 12.8045
head 10.7581 -2.06248 5.08542
rclavicle 3.02153e-014 -2.94201e-014
rhumerus 407.477 23.9563 317.411
rradius 22.8683
rwrist -14.0852
rhand -21.308 2.28764
rfingers 7.12502
rthumb 5.07694 -27.6315
lclavicle 3.02153e-014 -2.94201e-014
lhumerus 44.1569 -18.5831 46.2308
lradius 20.7963
lwrist -11.005
lhand -35.6122 20.6688
lfingers 7.12502
lthumb -8.7356 50.468
rfemur -38.6847 -8.73571 30.5195
rtibia 42.9202
rfoot -9.39903 2.26554
rtoes -13.106
lfemur -61.2641 1.62901 -16.9429
ltibia 37.6958
lfoot -2.57979 -1.5306
ltoes 15.3369
459
root 7.68909 17.1955 11.7711 37.3985 -13.398 -12.1781
lowerback 22.0727 2.07123 -0.96576
upperback 8.15055 1.97865 -5.85661
thorax -3.214 0.980005 -6.26156
lowerneck -25.3986 -4.86945 -9.06441
upperneck 17.98 -6.48583 12.7566
head 10.7286 -2.06821 5.06611
rclavicle 1.27222e-014 3.10104e-014
rhumerus 407.489 23.7038 317.574
rradius 22.7384
rwrist -14.9635
rhand -21.4605 2.13198
rfingers 7.12502
rthumb 4.92973 -27.7907
lclavicle 1.27222e-014 3.10104e-014
lhumerus 44.0824 -18.8662 46.2981
lradius 20.7935
lwrist -11.2723
lhand -38.0419 22.0461
lfingers 7.12502
lthumb -11.0797 51.7336
rfemur -38.5636 -8.06919 30.0885
rtibia 41.7896
rfoot -9.30887 2.04968
rtoes -13.1212
lfemur -61.4995 1.60499 -16.7727
ltibia 37.7226
lfoot -2.67324 -1.56784
ltoes 15.2909
460
root 7.664 17.2102 11.8522 37.8721 -13.0814 -12.2857
lowerback 22.2251 2.05761 -0.725995
upperback 8.17712 2.00572 -5.82048
thorax -3.25128 0.995913 -6.37451
lowerneck -25.4162 -4.88954 -9.07899
upperneck 17.9195 -6.48888 12.711
head 10.7083 -2.07621 5.04891
rclavicle 4.45278e-014 7.95139e-016
rhumerus 407.492 23.4711 317.74
rradius 22.6065
rwrist -15.801
rhand -21.623 2.03705
rfingers 7.12502
rthumb 4.77281 -27.8892
lclavicle 4.45278e-014 7.95139e-016
lhumerus 43.9285 -18.8113 46.8143
lradius 20.7463
lwrist -12.0981
lhand -40.3897 23.635
lfingers 7.12502
lthumb -13.3434 53.1878
rfemur -38.4271 -7.39009 29.6712
rtibia 40.6277
rfoot -9.25348 1.77494
rtoes -13.3004
lfemur -61.7559 1.56665 -16.5848
ltibia 37.7617
lfoot -2.76543 -1.59199
ltoes 15.199
461
root 7.63895 17.2238 11.933 38.3448 -12.7546 -12.3824
lowerback 22.3526 2.04193 -0.499996
upperback 8.20415 2.02995 -5.77552
thorax -3.27642 1.01035 -6.4678
lowerneck -25.4453 -4.91325 -9.09893
upperneck 17.8795 -6.49498 12.6606
head 10.6978 -2.08587 5.03096
rclavicle 2.22639e-014 -2.8625e-014
rhumerus 407.475 23.2385 317.872
rradius 22.4576
rwrist -16.5392
rhand -21.7903 1.99569
rfingers 7.12502
rthumb 4.61123 -27.9341
lclavicle 2.22639e-014 -2.8625e-014
lhumerus 43.701 -18.4458 47.7314
lradius 20.6976
lwrist -13.3276
lhand -42.4268 25.2646
lfingers 7.12502
lthumb -15.3063 54.6782
rfemur -38.2768 -6.69665 29.2466
rtibia 39.4498
rfoot -9.23522 1.43981
rtoes -13.5724
lfemur -62.0222 1.50873 -16.393
ltibia 37.8098
lfoot -2.85515 -1.60177
ltoes 15.0918
462
root 7.61377 17.236 12.0134 38.8091 -12.4341 -12.4646
lowerback 22.4689 2.02883 -0.306258
upperback 8.22768 2.05239 -5.72164
thorax -3.30133 1.02328 -6.53168
lowerneck -25.4744 -4.94259 -9.14555
upperneck 17.857 -6.50327 12.6203
head 10.6953 -2.09698 5.02159
rclavicle 2.06736e-014 -1.11319e-014
rhumerus 407.445 23.0226 317.991
rradius 22.299
rwrist -17.1927
rhand -21.9643 1.97858
rfingers 7.12502
rthumb 4.44322 -27.9548
lclavicle 2.06736e-014 -1.11319e-014
lhumerus 43.4308 -17.8721 48.8806
lradius 20.7046
lwrist -14.675
lhand -43.9892 26.728
lfingers 7.12502
lthumb -16.8108 56.0203
rfemur -38.1142 -5.97341 28.7985
rtibia 38.2739
rfoot -9.25123 1.05248
rtoes -13.8656
lfemur -62.2856 1.43652 -16.2048
ltibia 37.8621
lfoot -2.94572 -1.59431
ltoes 14.9429
463
root 7.58856 17.2472 12.0934 39.2545 -12.1252 -12.5229
lowerback 22.5834 2.02411 -0.145422
upperback 8.2468 2.07926 -5.66535
thorax -3.33089 1.03768 -6.575
lowerneck -25.4761 -4.97181 -9.19621
upperneck 17.8511 -6.50911 12.5625
head 10.6928 -2.10998 5.00716
rclavicle 3.65764e-014 -1.59028e-014
rhumerus 407.382 22.8185 318.096
rradius 22.1328
rwrist -17.7608
rhand -22.1583 1.97457
rfingers 7.12502
rthumb 4.25587 -27.9627
lclavicle 3.65764e-014 -1.59028e-014
lhumerus 43.1791 -17.3551 49.9229
lradius 20.8233
lwrist -15.6957
lhand -45.2272 27.9643
lfingers 7.12502
lthumb -18.0023 57.1512
rfemur -37.935 -5.22115 28.3128
rtibia 37.1129
rfoot -9.2894 0.619853
rtoes -14.1163
lfemur -62.5335 1.34461 -16.0281
ltibia 37.9145
lfoot -3.04049 -1.5678
ltoes 14.777
